<?xml version="1.0" encoding="utf-8"?>
<!-- Generator: Adobe Illustrator 15.0.0, SVG Export Plug-In . SVG Version: 6.00 Build 0)  -->
<!DOCTYPE svg PUBLIC "-//W3C//DTD SVG 1.1//EN" "http://www.w3.org/Graphics/SVG/1.1/DTD/svg11.dtd">
<svg version="1.1" id="圖層_1" xmlns="http://www.w3.org/2000/svg" xmlns:xlink="http://www.w3.org/1999/xlink" x="0px" y="0px"
	 width="252px" height="35.92px" viewBox="0 0 252 35.92" enable-background="new 0 0 252 35.92" xml:space="preserve">
<g>
	<path fill="#40220F" d="M29.304,10.782c0.671-0.948,1.344-1.956,2.016-3.024s1.32-2.13,1.944-3.186L27.9,2.484
		c-0.336,0.96-0.768,1.98-1.296,3.06c-0.528,1.08-1.08,2.13-1.656,3.15c-0.576,1.02-1.141,1.926-1.692,2.718l4.176,1.872
		C28.008,12.564,28.632,11.73,29.304,10.782z"/>
	<path fill="#40220F" d="M30.942,26.334c-0.9-1.067-1.83-2.111-2.79-3.132c-0.96-1.02-1.908-1.974-2.844-2.862l-3.852,2.268
		c0.959,0.912,1.914,1.902,2.862,2.97c0.948,1.068,1.848,2.154,2.7,3.258c0.852,1.104,1.614,2.178,2.286,3.222
		c0.671,1.044,1.2,2.01,1.584,2.898l4.212-2.592c-0.432-0.912-1.008-1.878-1.728-2.898C32.652,28.446,31.842,27.402,30.942,26.334z"
		/>
	<path fill="#40220F" d="M7.956,24.534c-0.96,1.284-2.016,2.479-3.168,3.582c-1.152,1.104-2.328,2.04-3.528,2.808
		c0.36,0.312,0.762,0.696,1.206,1.152c0.444,0.456,0.876,0.93,1.296,1.422c0.419,0.492,0.761,0.942,1.026,1.35
		c1.271-0.984,2.507-2.148,3.708-3.492c1.2-1.344,2.316-2.808,3.348-4.392c1.031-1.584,1.919-3.18,2.664-4.788l-4.212-1.512
		C9.696,21.96,8.916,23.25,7.956,24.534z"/>
	<polygon fill="#40220F" points="34.308,19.188 34.308,14.364 20.556,14.364 20.556,1.008 15.444,1.008 15.444,14.364 1.728,14.364 
		1.728,19.188 15.444,19.188 15.444,34.992 20.556,34.992 20.556,19.188 	"/>
	<path fill="#40220F" d="M6.66,10.386c0.456,0.972,0.779,1.842,0.972,2.61l4.752-2.16c-0.24-0.768-0.612-1.631-1.116-2.592
		C10.764,7.285,10.2,6.318,9.576,5.346c-0.625-0.972-1.26-1.877-1.908-2.718L3.276,4.536C3.9,5.4,4.506,6.349,5.094,7.38
		C5.682,8.413,6.204,9.414,6.66,10.386z"/>
	<polygon fill="#40220F" points="63.324,10.908 67.968,10.908 67.968,8.208 70.776,8.208 70.776,4.068 67.968,4.068 67.968,1.008 
		63.324,1.008 63.324,4.068 61.344,4.068 61.344,8.208 63.324,8.208 	"/>
	<path fill="#40220F" d="M50.364,6.948h-5.83l2.194-1.26c-0.24-0.671-0.6-1.458-1.08-2.358c-0.48-0.9-0.96-1.733-1.44-2.502
		l-3.492,1.764c0.408,0.792,0.846,1.68,1.314,2.664c0.3,0.63,0.536,1.18,0.742,1.692h-5.728v3.744h13.32V6.948z"/>
	<path fill="#40220F" d="M61.848,10.692l-3.312-0.516V8.28h1.944V4.14h-1.944V1.008h-4.572V4.14h-3.24v4.14h3.24v2.628h3.315
		c-0.172,0.914-0.374,1.802-0.603,2.664h-6.24v4.32H55.2c-0.17,0.398-0.331,0.804-0.516,1.188c-1.288,2.673-3.005,4.797-5.148,6.378
		V21.96h-7.272h-1.8h-2.016v12.564h3.816v-1.476h7.272V25.52c0.327,0.261,0.686,0.595,1.08,1.013
		c0.408,0.432,0.804,0.864,1.188,1.296c0.383,0.432,0.684,0.804,0.9,1.116c0.729-0.61,1.403-1.295,2.052-2.016v8.136h4.284v-1.476
		h6.192v1.332h4.464V21.276h-11.18c0.519-1.073,0.974-2.212,1.398-3.384h11.078v-4.32h-9.756
		C61.465,12.638,61.669,11.679,61.848,10.692z M45.612,29.232h-3.348V25.74h3.348V29.232z M65.232,25.38v4.104H59.04V25.38H65.232z"
		/>
	<rect x="38.556" y="16.956" fill="#40220F" width="10.764" height="3.564"/>
	<rect x="38.556" y="12.024" fill="#40220F" width="10.764" height="3.564"/>
	<path fill="#40220F" d="M73.656,8.208h23.652v20.808c0,0.384-0.09,0.648-0.27,0.792c-0.18,0.144-0.486,0.216-0.918,0.216
		c-0.288,0-0.792,0-1.512,0c-0.72,0-1.53-0.012-2.43-0.036c-0.9-0.024-1.771-0.06-2.61-0.108c0.264,0.432,0.528,0.954,0.792,1.566
		c0.264,0.612,0.51,1.229,0.738,1.854c0.228,0.624,0.378,1.175,0.45,1.656c1.896,0,3.522-0.048,4.878-0.144
		c1.356-0.096,2.502-0.348,3.438-0.756c0.912-0.384,1.548-0.96,1.908-1.728c0.36-0.768,0.54-1.836,0.54-3.204V8.208h4.104V3.384
		h-32.76V8.208z"/>
	<path fill="#40220F" d="M92.412,26.028V11.88H81.54h-2.664h-1.98v16.884h4.644v-2.736H92.412z M87.696,16.416v5.076H81.54v-5.076
		H87.696z"/>
	<path fill="#40220F" d="M139.608,28.188c-0.097,0.96-0.229,1.608-0.396,1.944c-0.168,0.336-0.456,0.516-0.864,0.54
		c-0.748,0-1.464-0.247-2.155-0.714c1.613-1.121,2.968-2.395,4.063-3.822l-2.97-1.008h5.13v-3.456h-3.483l1.936-2.088
		c-0.456-0.383-1.038-0.774-1.746-1.17s-1.452-0.774-2.232-1.134c-0.456-0.21-0.897-0.399-1.332-0.576h6.642V13.14h-13.788v-1.08
		h10.26V8.82h-10.26V7.776h12.132V4.284h-5.863c0.101-0.127,0.196-0.241,0.301-0.378c0.468-0.612,0.953-1.278,1.458-1.998
		l-5.292-0.972c-0.169,0.504-0.396,1.08-0.685,1.728c-0.263,0.592-0.526,1.128-0.79,1.62h-6.95c-0.168-0.48-0.456-1.032-0.863-1.656
		c-0.409-0.624-0.841-1.164-1.296-1.62l-4.177,1.332c0.433,0.528,0.828,1.128,1.188,1.8c0.027,0.051,0.044,0.094,0.07,0.144h-6.118
		v3.492h11.952V8.82H113.4v3.24h10.08v1.08h-13.645v3.564h12.521c-0.799,0.159-1.687,0.309-2.676,0.45
		c-1.428,0.204-2.939,0.378-4.535,0.522c-1.597,0.144-3.163,0.252-4.698,0.324c0.191,0.384,0.384,0.853,0.576,1.404
		c0.191,0.552,0.323,1.032,0.396,1.44c1.607-0.072,3.276-0.167,5.004-0.288c0.109-0.007,0.215-0.02,0.324-0.028v1.144h-6.984v3.456
		h6.984v1.31c-0.764,0.033-1.523,0.065-2.25,0.094c-1.813,0.072-3.426,0.132-4.842,0.18l0.359,3.6
		c1.488-0.12,3.133-0.234,4.933-0.342c0.588-0.035,1.196-0.076,1.8-0.115v0.961c0,0.24-0.054,0.402-0.162,0.486
		c-0.108,0.084-0.294,0.126-0.558,0.126c-0.169,0-0.475,0.006-0.918,0.018c-0.444,0.012-0.942,0.006-1.494-0.018
		c-0.553-0.023-1.068-0.048-1.548-0.072c0.264,0.528,0.521,1.128,0.773,1.8c0.252,0.671,0.438,1.284,0.559,1.836
		c1.344,0,2.507-0.024,3.491-0.072c0.984-0.049,1.836-0.205,2.557-0.468c0.743-0.264,1.247-0.654,1.512-1.17
		c0.264-0.517,0.396-1.291,0.396-2.322v-1.431c1.68-0.127,3.36-0.259,5.04-0.405l0.035-3.168c-1.702,0.1-3.39,0.185-5.075,0.268
		v-1.095h6.595c0.472,1.493,1.045,2.841,1.72,4.045c-0.531,0.217-1.073,0.426-1.637,0.617c-1.74,0.588-3.534,1.062-5.382,1.422
		c0.264,0.288,0.545,0.671,0.846,1.152c0.3,0.479,0.588,0.954,0.864,1.422c0.275,0.468,0.485,0.87,0.63,1.206
		c1.991-0.576,3.941-1.272,5.85-2.088c0.412-0.176,0.815-0.363,1.214-0.554c0.482,0.469,0.984,0.898,1.522,1.256
		c1.355,0.9,2.862,1.35,4.518,1.35c1.008,0,1.836-0.126,2.484-0.378c0.647-0.252,1.17-0.732,1.566-1.44
		c0.396-0.708,0.701-1.746,0.918-3.114c-0.553-0.168-1.158-0.414-1.818-0.738C140.586,28.962,140.04,28.597,139.608,28.188z
		 M121.356,20.054c0.053-0.007,0.108-0.012,0.161-0.02c1.668-0.228,3.174-0.51,4.519-0.846l-2.451-2.484h10.714l-2.251,2.376
		c0.72,0.288,1.464,0.63,2.232,1.026c0.768,0.396,1.499,0.805,2.195,1.224c0.193,0.117,0.349,0.229,0.52,0.342h-5.287
		c-0.33-1.43-0.534-2.927-0.596-4.5h-4.572c0.09,1.566,0.281,3.061,0.551,4.5h-5.734V20.054z M135.903,25.128
		c-0.611,0.693-1.335,1.337-2.191,1.926c-0.068-0.122-0.14-0.233-0.207-0.36c-0.257-0.491-0.492-1.019-0.714-1.566H135.903z"/>
	<path fill="#40220F" d="M175.104,23.58c-0.096,2.208-0.246,3.829-0.449,4.86c-0.204,1.032-0.486,1.548-0.847,1.548
		c-0.624,0-1.224-0.534-1.8-1.602c-0.576-1.068-1.098-2.543-1.565-4.428c-0.469-1.884-0.864-4.05-1.188-6.498
		c-0.244-1.845-0.437-3.789-0.579-5.832h9.633v-4.68h-3.292l2.5-2.124c-0.312-0.408-0.732-0.846-1.26-1.314
		c-0.528-0.468-1.092-0.93-1.691-1.386c-0.601-0.456-1.152-0.852-1.656-1.188l-3.168,2.592c0.552,0.384,1.109,0.822,1.674,1.314
		c0.563,0.492,1.098,0.984,1.602,1.476c0.225,0.219,0.417,0.427,0.594,0.63h-5.143c-0.052-1.924-0.072-3.854-0.022-5.796h-5.148
		c0,1.932,0.045,3.864,0.11,5.796H145.8v4.68h17.842c0.128,1.921,0.285,3.806,0.5,5.616c0.3,2.52,0.702,4.854,1.206,7.002
		c0.504,2.148,1.128,4.026,1.872,5.634s1.62,2.867,2.628,3.78c1.009,0.912,2.184,1.368,3.528,1.368c1.224,0,2.226-0.24,3.006-0.72
		c0.78-0.48,1.404-1.338,1.872-2.574s0.811-3.03,1.026-5.382c-0.673-0.239-1.398-0.63-2.179-1.17
		C176.322,24.642,175.656,24.108,175.104,23.58z"/>
	<path fill="#40220F" d="M157.14,27.405v-7.389h5.544v-4.608h-15.516v4.608h5.184v8.171c-0.498,0.078-1.011,0.161-1.493,0.235
		c-1.957,0.3-3.667,0.558-5.131,0.774l1.332,4.824c1.561-0.312,3.276-0.66,5.148-1.044c1.872-0.384,3.81-0.786,5.814-1.206
		c2.003-0.419,3.978-0.833,5.922-1.242l-0.36-4.248C161.465,26.661,159.317,27.036,157.14,27.405z"/>
	<path fill="#40220F" d="M183.132,12.168c0.402-0.252,0.785-0.512,1.156-0.776c0.453,0.302,0.917,0.63,1.4,1.011
		c0.188,0.149,0.358,0.292,0.519,0.431c-1.536,0.766-3.102,1.375-4.695,1.819c0.384,0.36,0.798,0.822,1.242,1.386
		c0.444,0.564,0.786,1.062,1.026,1.494c1.848-0.6,3.642-1.374,5.382-2.322c1.739-0.948,3.33-2.075,4.77-3.384
		c1.44-1.308,2.593-2.802,3.456-4.482L194.76,5.94l-0.684,0.18h-0.72h-1.297V5.112h5.761V2.34h-5.761V1.008h-3.995v4.72l-2.16-0.437
		c-0.528,0.769-1.23,1.536-2.106,2.304c-0.876,0.769-1.914,1.476-3.114,2.124c0.384,0.24,0.822,0.612,1.314,1.116
		C182.489,11.34,182.867,11.785,183.132,12.168z M190.548,10.044c-0.474,0.392-0.979,0.761-1.5,1.119
		c-0.274-0.227-0.582-0.465-0.948-0.723c-0.524-0.369-1.019-0.688-1.496-0.979c0.06-0.058,0.125-0.115,0.183-0.173
		c0.207-0.21,0.387-0.433,0.584-0.648h4.624C191.568,9.123,191.094,9.593,190.548,10.044z"/>
	<path fill="#40220F" d="M206.424,16.236c-1.464-0.552-2.82-1.14-4.067-1.764c-0.802-0.4-1.525-0.806-2.188-1.217
		c0.235-0.233,0.458-0.475,0.683-0.714c0.375,0.551,0.684,1.058,0.894,1.499c1.456-0.554,2.818-1.242,4.1-2.05
		c0.531,0.322,1.064,0.645,1.57,0.97c1.38,0.888,2.489,1.716,3.33,2.484l2.916-2.952c-0.96-0.744-2.154-1.548-3.582-2.412
		c-0.344-0.208-0.705-0.409-1.058-0.613c0.476-0.477,0.936-0.974,1.363-1.511c1.128-1.416,2.004-3.036,2.628-4.86l-2.628-1.08
		l-0.72,0.144h-0.72h-10.08v3.204h8.654c-0.206,0.276-0.426,0.547-0.662,0.81c-0.428,0.477-0.895,0.924-1.393,1.348
		c-1.529-0.778-2.987-1.453-4.368-2.014l-2.628,2.556c1.118,0.503,2.287,1.091,3.484,1.724c-0.813,0.387-1.658,0.718-2.548,0.976
		c0.233,0.22,0.477,0.496,0.727,0.802l-2.347-1.198c-1.177,1.344-2.683,2.58-4.519,3.708c-1.836,1.128-3.815,2.112-5.939,2.952
		c-2.124,0.84-4.254,1.536-6.391,2.088c0.48,0.456,0.954,1.008,1.423,1.656c0.468,0.648,0.821,1.224,1.062,1.728
		c1.51-0.471,3.008-1.035,4.5-1.643v8.555c0,0.696-0.114,1.206-0.342,1.53c-0.229,0.324-0.511,0.57-0.846,0.738
		c0.191,0.216,0.383,0.522,0.575,0.918s0.366,0.804,0.522,1.224c0.155,0.419,0.258,0.786,0.306,1.098
		c0.216-0.121,0.516-0.229,0.9-0.324c0.384-0.096,0.954-0.198,1.71-0.306s1.812-0.24,3.168-0.396
		c1.355-0.156,3.114-0.354,5.274-0.594c-0.024-0.457-0.031-1.008-0.019-1.656c0.009-0.494,0.032-0.942,0.063-1.367
		c0.556,0.176,1.119,0.359,1.701,0.557c1.309,0.444,2.593,0.918,3.853,1.422c1.26,0.504,2.441,1.008,3.546,1.512
		c1.104,0.504,2.027,0.984,2.771,1.44l2.232-2.736c-0.816-0.456-1.794-0.924-2.934-1.404c-0.223-0.094-0.459-0.186-0.686-0.279
		c0.05-0.036,0.095-0.063,0.146-0.1c1.092-0.779,2.153-1.566,3.186-2.358l-3.275-2.052c-0.369,0.39-0.823,0.832-1.332,1.309v-6.725
		c1.472,0.546,2.877,1.01,4.212,1.384c0.288-0.504,0.695-1.092,1.224-1.764c0.527-0.672,0.996-1.2,1.404-1.584
		c-1.417-0.312-2.88-0.696-4.393-1.152C209.376,17.292,207.888,16.789,206.424,16.236z M197.668,15.445
		c0.617,0.423,1.27,0.843,1.97,1.259c0.271,0.161,0.558,0.312,0.834,0.468h-5.274c0.343-0.219,0.687-0.437,1.021-0.666
		C196.718,16.164,197.2,15.809,197.668,15.445z M190.062,19.962c1.216-0.551,2.383-1.156,3.511-1.803v1.245h8.855v-1.179
		c0.471,0.24,0.937,0.482,1.422,0.711c0.809,0.381,1.623,0.739,2.442,1.08h-13.836h-2.124h-0.399
		C189.976,19.997,190.019,19.982,190.062,19.962z M192.456,22.464h11.484v0.792h-11.484V22.464z M192.456,24.948h11.484v0.9h-11.484
		V24.948z M192.456,30.482v-2.258h6.018l-1.266,1.44c0.332,0.095,0.681,0.204,1.023,0.307L192.456,30.482z M202.573,28.224h5.168
		c-0.473,0.428-0.946,0.855-1.426,1.262c-1.12-0.405-2.245-0.795-3.384-1.154C202.809,28.293,202.695,28.262,202.573,28.224z"/>
	<path fill="#40220F" d="M234.828,29.97c-0.165,0.653-0.372,1.229-0.612,1.746V11.268h1.296V8.352h-11.447v2.916h1.115v7.92h-1.476
		v2.916h7.056v12.888h3.456v-2.196l2.412,1.116c0.527-0.744,0.912-1.68,1.152-2.808c0.239-1.127,0.419-2.255,0.54-3.384
		l-2.952-0.828C235.271,27.9,235.092,28.926,234.828,29.97z M230.76,11.268v1.044h-2.268v-1.044H230.76z M228.492,14.544h2.268
		v1.152h-2.268V14.544z M228.492,19.188v-1.224h2.268v1.224H228.492z"/>
	<path fill="#40220F" d="M250.992,32.328c-0.12-0.864-0.433-1.872-0.937-3.024s-1.044-2.196-1.62-3.132l-2.951,1.044
		c0.552,0.984,1.056,2.064,1.512,3.24c0.034,0.088,0.061,0.169,0.093,0.255c-0.427-0.098-0.897-0.245-1.425-0.453
		c-0.576-0.228-1.021-0.462-1.332-0.702c-0.024,0.696-0.061,1.206-0.108,1.53c-0.048,0.324-0.114,0.535-0.197,0.63
		c-0.085,0.096-0.223,0.144-0.414,0.144c-0.097,0-0.223,0-0.378,0c-0.157,0-0.318,0-0.486,0s-0.288,0-0.36,0
		c-0.264,0-0.426-0.042-0.485-0.126c-0.061-0.084-0.091-0.318-0.091-0.702v-3.497c0.006,0.008,0.013,0.015,0.019,0.023
		c0.588,0.78,1.014,1.446,1.278,1.998l2.699-1.62c-0.264-0.576-0.708-1.229-1.332-1.962c-0.344-0.403-0.688-0.778-1.032-1.134h7.404
		v-3.096h-15.624v3.096h5.98l-1.156,0.684c0.437,0.419,0.869,0.912,1.301,1.44H238.5v4.068c0,0.959,0.09,1.71,0.27,2.25
		c0.181,0.54,0.505,0.923,0.973,1.152c0.468,0.228,1.17,0.342,2.105,0.342c0.12,0,0.276,0,0.469,0c0.191,0,0.396,0,0.611,0
		s0.42,0,0.612,0c0.191,0,0.36,0,0.504,0c1.008,0,1.746-0.27,2.214-0.81c0.444-0.513,0.749-1.524,0.923-3
		c0.342,0.957,0.562,1.799,0.644,2.513L250.992,32.328z"/>
	<path fill="#40220F" d="M250.056,12.204V9.036h-5.363V7.56h-3.996v1.476h-4.933v3.168h4.933v1.224h-4.788V20.7h13.968v-7.272
		h-5.184v-1.224H250.056z M239.796,18.108h-1.08V16.02h1.08V18.108z M243.396,18.108h-1.188V16.02h1.188V18.108z M245.772,16.02
		h1.224v2.088h-1.224V16.02z"/>
	<path fill="#40220F" d="M230.688,25.488l-1.549-2.808c-0.815,0.192-1.817,0.366-3.006,0.522c-1.103,0.145-2.154,0.238-3.163,0.29
		c0.141-1.42,0.255-2.824,0.319-4.196c0.084-1.8,0.126-3.432,0.126-4.896V6.984h27.108V3.348h-13.253
		c-0.135-0.275-0.272-0.551-0.445-0.846c-0.444-0.756-0.918-1.434-1.422-2.034L231.3,2.052c0.279,0.397,0.546,0.836,0.808,1.296
		h-8.691h-1.296h-2.988v11.088c0,1.32-0.024,2.76-0.072,4.32s-0.149,3.15-0.306,4.77c-0.156,1.62-0.402,3.192-0.738,4.716
		c-0.336,1.524-0.804,2.934-1.403,4.23c0.336,0.144,0.737,0.372,1.206,0.684c0.468,0.312,0.93,0.642,1.386,0.99
		c0.455,0.348,0.804,0.654,1.044,0.918c0.695-1.416,1.248-3.006,1.656-4.77c0.407-1.764,0.72-3.587,0.936-5.472
		c0.033-0.294,0.055-0.58,0.086-0.872c0.111,0.271,0.218,0.557,0.311,0.872c0.144,0.492,0.239,0.906,0.288,1.242
		c0.608,0.027,1.263,0.023,1.943,0v1.152h-1.836V29.7h1.836v1.425c-1.027,0.064-1.99,0.12-2.844,0.159l0.324,2.916
		c1.128-0.096,2.304-0.204,3.527-0.324c1.225-0.12,2.472-0.252,3.744-0.396l-0.071-2.7c-0.615,0.052-1.211,0.099-1.801,0.145V29.7
		h1.729v-2.484h-1.729V25.84C229.173,25.744,229.966,25.633,230.688,25.488z"/>
</g>
</svg>
